<?xml version="1.0" encoding="UTF-8" standalone="no"?>
<!-- Created with Inkscape (http://www.inkscape.org/) -->

<svg
   version="1.1"
   id="svg2"
   width="3993"
   height="1002"
   viewBox="0 0 3993 1002"
   sodipodi:docname="logo-e.svg"
   inkscape:version="1.1.1 (3bf5ae0d25, 2021-09-20)"
   xmlns:inkscape="http://www.inkscape.org/namespaces/inkscape"
   xmlns:sodipodi="http://sodipodi.sourceforge.net/DTD/sodipodi-0.dtd"
   xmlns="http://www.w3.org/2000/svg"
   xmlns:svg="http://www.w3.org/2000/svg">
  <defs
     id="defs6" />
  <sodipodi:namedview
     id="namedview4"
     pagecolor="#ffffff"
     bordercolor="#666666"
     borderopacity="1.0"
     inkscape:pageshadow="2"
     inkscape:pageopacity="0.0"
     inkscape:pagecheckerboard="0"
     showgrid="false"
     inkscape:zoom="0.071813173"
     inkscape:cx="1510.8649"
     inkscape:cy="-473.45074"
     inkscape:window-width="1366"
     inkscape:window-height="704"
     inkscape:window-x="-8"
     inkscape:window-y="-8"
     inkscape:window-maximized="1"
     inkscape:current-layer="g8" />
  <g
     inkscape:groupmode="layer"
     inkscape:label="Image"
     id="g8">
    <g
       id="g4368-5-7-6-6-2-9-7-11-3"
       transform="matrix(46.612487,0,-9.0772646e-7,44.09048,-14261.449,-25896.034)"
       style="fill:#333333;fill-opacity:1"
       inkscape:export-filename="C:\xampp\htdocs\phpExample\WebSites\web1\assets\img\logo-e.png"
       inkscape:export-xdpi="96"
       inkscape:export-ydpi="96">
      <g
         id="g9010-0-4-3-9-7-5-6-2-2-3-0-2-2-8-1"
         transform="matrix(0.62349678,0,0,0.63380379,-58.714377,647.31203)"
         style="fill:#333333;fill-opacity:1">
        <path
           style="fill:#333333;fill-opacity:1;stroke-width:0.069523"
           d="m 685.57439,-59.713612 c -1.4888,-0.137886 -3.11864,-0.561444 -4.32805,-1.124758 -3.25971,-1.518281 -5.70362,-4.681676 -6.52213,-8.442216 -0.17555,-0.806478 -0.18859,-0.983771 -0.1905,-2.589228 -0.002,-1.532458 0.0159,-1.810574 0.15983,-2.50937 0.82117,-3.986625 3.25219,-7.072203 6.90049,-8.758507 1.89457,-0.875697 3.72598,-1.220359 6.14466,-1.156419 2.27045,0.06003 3.8164,0.439767 5.67429,1.393767 0.96855,0.497348 1.71767,1.034103 2.58812,1.85442 0.68021,0.641048 1.70276,1.854859 1.70276,2.021245 0,0.04132 -1.04276,0.669253 -2.31725,1.395318 l -2.31727,1.320117 -0.53982,-0.49749 c -1.52131,-1.401984 -2.73858,-1.925122 -4.73333,-2.034199 -3.11346,-0.170223 -5.65189,1.223377 -6.88302,3.778796 -0.52578,1.091376 -0.63262,1.644092 -0.63036,3.261259 10e-4,1.219234 0.0207,1.446585 0.1632,1.964758 0.33055,1.201118 0.93524,2.217182 1.80774,3.037535 1.22536,1.15214 2.54589,1.67689 4.45032,1.76845 2.40397,0.115578 4.50671,-0.668804 5.91962,-2.208175 l 0.42367,-0.461593 2.10039,1.489437 c 1.15521,0.819197 2.16056,1.531489 2.23409,1.582874 0.12775,0.08927 0.11994,0.111244 -0.17529,0.492994 -0.49869,0.64487 -1.73333,1.810504 -2.44963,2.312708 -2.41245,1.691398 -5.6522,2.435227 -9.18253,2.108277 z m -90.79164,-0.695145 c -0.0344,-0.08531 -2.20871,-5.366879 -4.83191,-11.736818 l -4.76943,-11.581706 2.84866,-0.018 c 1.61623,-0.01066 2.87588,0.0083 2.91158,0.04393 0.0346,0.03398 1.33591,3.139737 2.89177,6.901565 1.55588,3.761828 2.84167,6.852278 2.85733,6.86767 0.0156,0.01537 1.30929,-3.082196 2.87476,-6.883537 l 2.84628,-6.911523 2.88695,-0.018 c 2.73143,-0.01705 2.88448,-0.01184 2.84093,0.10337 -0.0253,0.06678 -2.19588,5.35645 -4.82349,11.75483 l -4.77746,11.633404 h -1.84675 -1.84675 z m 16.12174,-11.598944 v -11.754048 h 2.83955 2.83956 v 11.754048 11.754057 h -2.83956 -2.83955 z m 39.0527,-6.75e-4 v -11.754829 l 2.82203,0.018 2.82204,0.018 0.0193,1.154724 c 0.0103,0.635093 0.0361,1.154725 0.0566,1.154725 0.0205,0 0.26434,-0.188765 0.54168,-0.419459 1.50737,-1.253821 3.06769,-2.044489 4.62589,-2.344073 2.08855,-0.401532 4.3286,0.05494 5.99,1.220643 1.70697,1.197671 2.60288,2.647895 3.04646,4.931366 0.14977,0.770929 0.15238,0.90595 0.17874,9.279012 l 0.0267,8.496702 h -2.79842 -2.79843 l -0.0405,-6.531948 c -0.0414,-6.666653 -0.0847,-7.853916 -0.33016,-9.048201 -0.31862,-1.550077 -1.18133,-2.587862 -2.4728,-2.974606 -0.61646,-0.184609 -1.83235,-0.158062 -2.44307,0.05328 -1.57926,0.546665 -2.79462,2.065695 -3.28381,4.104251 -0.24487,1.020498 -0.28306,2.150322 -0.28306,8.375023 v 6.022134 h -2.83957 -2.83956 z"
           id="path1234-2-8-5-4-9-4-0-4-6-4-9-4-6-0-8"
           sodipodi:nodetypes="ssscssssssscsssccssscssssssscccssscssscccsccccccccccccccsssssscccssscsscccc" />
        <path
           style="fill:#333333;fill-opacity:1;stroke-width:0.069523"
           d="m 708.46588,-59.681064 c -2.39941,-0.25266 -4.6036,-1.37039 -6.37003,-3.23021 -1.79102,-1.88569 -2.83089,-4.02512 -3.28203,-6.75247 -0.17615,-1.06483 -0.17461,-3.61786 0.002,-4.68784 0.36302,-2.18918 0.9918,-3.84481 2.02104,-5.3215 1.67815,-2.4077 3.85412,-3.92112 6.43628,-4.4765 3.50919,-0.84489 6.693,-0.53806 9.48295,0.86616 2.72879,1.44307 5.58044,5.19053 5.81801,11.09103 l -0.43665,11.93875 h -2.83976 -2.83977 v -1.20642 c 0,-0.66355 -0.0187,-1.20643 -0.0416,-1.20643 -0.0228,0 -0.2969,0.23321 -0.60895,0.51824 -1.51327,1.38233 -3.33018,2.23171 -5.23229,2.44603 -0.57862,0.0652 -1.59483,0.0754 -2.11001,0.0211 z m 3.46738,-5.51205 c 2.38633,-0.52668 4.18833,-2.55686 4.67187,-5.26343 0.13531,-0.75737 0.11821,-2.51656 -0.0317,-3.2658 -0.41599,-2.07845 -1.62871,-3.71805 -3.37491,-4.56288 -0.75068,-0.36318 -1.25337,-0.49999 -2.10338,-0.57243 -1.16829,-0.0996 -2.35731,0.0935 -3.22341,0.52359 -1.42145,0.70573 -2.61341,2.0974 -3.15021,3.67801 -0.52134,1.53514 -0.52109,3.7677 5.4e-4,5.29581 0.7896,2.31283 2.70026,3.97626 4.91188,4.27631 0.60611,0.0822 1.65843,0.0322 2.29928,-0.10918 z"
           id="path1234-4-9-5-0-3-3-3-7-7-6-4-7-0-3-9-2"
           sodipodi:nodetypes="csscsccccccssssccsssssssssss" />
        <path
           style="fill:#333333;fill-opacity:1;stroke-width:0.069523"
           d="m 612.93517,-86.406975 c -0.55423,-0.10562 -1.31667,-0.52734 -1.78048,-0.98478 -0.69476,-0.68522 -1.06274,-1.489167 -1.14006,-2.490787 -0.0909,-1.17707 0.25393,-2.14538 1.06485,-2.99061 1.42072,-1.48082 3.62023,-1.47715 5.05341,0.008 0.78556,0.81429 1.10497,1.62018 1.10075,2.77724 -0.003,1.09035 -0.3694,1.960327 -1.1434,2.722157 -0.85537,0.84194 -1.97756,1.18281 -3.15507,0.95837 z"
           id="path1234-7-9-2-7-3-9-5-8-4-7-4-9-0-7-67-3"
           sodipodi:nodetypes="csssscscc" />
      </g>
    </g>
    <path
       style="fill:#9b5c41;fill-opacity:1;stroke:none;stroke-width:0.504072px;stroke-linecap:butt;stroke-linejoin:miter;stroke-opacity:1"
       d="m 1222.7097,515.45425 -164.3319,-93.84929 344.5191,-191.23288 327.3442,192.89681 -163.3361,95.90257 -170.2214,-99.76097 z"
       id="path1009-2-7-0-5-9-5"
       sodipodi:nodetypes="ccccccc"
       inkscape:export-filename="C:\xampp\htdocs\phpExample\WebSites\web1\assets\img\logo-e.png"
       inkscape:export-xdpi="96"
       inkscape:export-ydpi="96" />
    <path
       style="fill:#333333;fill-opacity:1;stroke:none;stroke-width:0.504072px;stroke-linecap:butt;stroke-linejoin:miter;stroke-opacity:1"
       d="m 1212.4905,536.95814 -0.5492,192.42063 172.445,98.63584 3.1715,191.47879 -342.3169,-188.46688 0.3885,-389.12955 z"
       id="path2520-7-3-8-8-13-1"
       sodipodi:nodetypes="ccccccc"
       inkscape:export-filename="C:\xampp\htdocs\phpExample\WebSites\web1\assets\img\logo-e.png"
       inkscape:export-xdpi="96"
       inkscape:export-ydpi="96" />
    <path
       style="fill:#333333;fill-opacity:1;stroke:none;stroke-width:0.504072px;stroke-linecap:butt;stroke-linejoin:miter;stroke-opacity:1"
       d="m 1745.4078,446.85156 -167.1445,93.4684 v 193.32673 l -169.0764,94.21485 -0.1553,191.63186 169.2323,-98.99919 169.5031,99.97589 z"
       id="path2522-7-2-2-24-14-7"
       sodipodi:nodetypes="cccccccc"
       inkscape:export-filename="C:\xampp\htdocs\phpExample\WebSites\web1\assets\img\logo-e.png"
       inkscape:export-xdpi="96"
       inkscape:export-ydpi="96" />
  </g>
</svg>
