<?xml version="1.0" encoding="UTF-8" standalone="no"?>
<!-- Created with Inkscape (http://www.inkscape.org/) -->

<svg
   version="1.1"
   id="svg2"
   width="3993"
   height="1002"
   viewBox="0 0 3993 1002"
   sodipodi:docname="logo-black.svg"
   inkscape:version="1.1.1 (3bf5ae0d25, 2021-09-20)"
   xmlns:inkscape="http://www.inkscape.org/namespaces/inkscape"
   xmlns:sodipodi="http://sodipodi.sourceforge.net/DTD/sodipodi-0.dtd"
   xmlns="http://www.w3.org/2000/svg"
   xmlns:svg="http://www.w3.org/2000/svg">
  <defs
     id="defs6" />
  <sodipodi:namedview
     id="namedview4"
     pagecolor="#ffffff"
     bordercolor="#666666"
     borderopacity="1.0"
     inkscape:pageshadow="2"
     inkscape:pageopacity="0.0"
     inkscape:pagecheckerboard="0"
     showgrid="false"
     inkscape:zoom="0.050779582"
     inkscape:cx="-88.618296"
     inkscape:cy="2441.9264"
     inkscape:window-width="1366"
     inkscape:window-height="704"
     inkscape:window-x="-8"
     inkscape:window-y="-8"
     inkscape:window-maximized="1"
     inkscape:current-layer="g71183" />
  <g
     inkscape:groupmode="layer"
     inkscape:label="Image"
     id="g8">
    <g
       id="g71183"
       transform="matrix(1.4144464,0,0,1.301192,-1222.8256,-3382.4148)">
      <path
         style="fill:#333333;fill-opacity:1;stroke:#000000;stroke-width:3.68445px;stroke-linecap:butt;stroke-linejoin:miter;stroke-opacity:1"
         d="m 1274.0516,2937.3505 85.7913,-1.5218 -159.3252,416.7911 -80.3432,3.0421 -157.9642,-416.791 h 80.3432 l 112.5329,295.6483 h 8.1834 z"
         id="path18775-6-4-3" />
      <path
         style="fill:#333333;fill-opacity:1;stroke:#000000;stroke-width:3.68445px;stroke-linecap:butt;stroke-linejoin:miter;stroke-opacity:1"
         d="m 1499.2873,2935.8287 76.5511,0.5298 0.6983,417.2488 -74.899,-0.7653 z"
         id="path18810-9-5-9" />
      <path
         style="fill:#333333;fill-opacity:1;stroke:#000000;stroke-width:3.68445px;stroke-linecap:butt;stroke-linejoin:miter;stroke-opacity:1"
         d="m 1715.981,3353.6147 159.3253,-415.2693 h 76.2586 l 160.6876,416.7911 h -80.3444 l -114.3894,-297.382 -5.7867,-0.3827 -115.0745,298.1621 z"
         id="path18980-0-7-2" />
      <path
         style="fill:#333333;fill-opacity:1;stroke:#000000;stroke-width:3.68445px;stroke-linecap:butt;stroke-linejoin:miter;stroke-opacity:1"
         d="m 3245.2518,3355.6679 159.3252,-415.2693 h 76.2587 l 160.6876,416.7911 h -80.3445 l -114.3893,-297.382 -5.7868,-0.3827 -115.0744,298.1621 z"
         id="path18980-6-1-0-2" />
      <path
         style="fill:#333333;fill-opacity:1;stroke:#000000;stroke-width:2.94254px;stroke-linecap:butt;stroke-linejoin:miter;stroke-opacity:1"
         d="m 2251.6968,3355.1365 v -399.9641 l 310.8241,241.797 v -240.702 l 73.3797,-2.2283 0.3558,404.5267 -312.3735,-237.8747 -1.9264,232.1745 z"
         id="path21959-7-7-2"
         sodipodi:nodetypes="ccccccccc" />
      <path
         style="fill:#333333;fill-opacity:1;stroke:none;stroke-width:3.68445px;stroke-linecap:butt;stroke-linejoin:miter;stroke-opacity:1"
         d="m 3063.4395,3064.2583 53.9218,-53.7805 c -79.3247,-101.6122 -201.6616,-92.6181 -278.9598,-23.6634 -76.2296,64.3068 -119.0456,279.3879 72.2176,360.3273 55.9641,19.3835 135.7473,11.3181 195.1883,-53.779 l -49.1086,-57.0068 c -66.4915,60.1932 -136.9317,46.382 -182.952,-8.6085 -27.6124,-45.983 -38.7736,-94.9523 -7.6419,-155.2014 76.3153,-93.7426 162.5256,-51.0298 197.3346,-8.2906 z"
         id="path27307-7-9-7"
         sodipodi:nodetypes="cccccccccc" />
      <path
         style="fill:#ff7f2a;fill-opacity:1;stroke:#000000;stroke-width:0.247711px;stroke-linecap:butt;stroke-linejoin:miter;stroke-opacity:1"
         d="m 1141.7597,2890.0606 c 833.8067,-181.1969 1388.2398,-181.1969 2207.7453,1.5276 -741.5106,-383.9647 -1445.9192,-383.9647 -2207.7453,-1.5276 z"
         id="path69253-1-6"
         sodipodi:nodetypes="ccc" />
    </g>
  </g>
</svg>
