<svg xmlns="http://www.w3.org/2000/svg" width="58" height="58" viewBox="0 0 58 58"><g transform="translate(-1854 -1722)"><circle cx="29" cy="29" r="29" transform="translate(1854 1722)" fill="#b2c0c7" opacity="0.5"/><g transform="translate(1852 1720)"><path d="M57.812,62.644H46.161A4.166,4.166,0,0,1,42,58.483V50.161A4.166,4.166,0,0,1,46.161,46H57.812a4.166,4.166,0,0,1,4.161,4.161v8.322A4.166,4.166,0,0,1,57.812,62.644ZM46.161,47.664a2.5,2.5,0,0,0-2.5,2.5v8.322a2.5,2.5,0,0,0,2.5,2.5H57.812a2.5,2.5,0,0,0,2.5-2.5V50.161a2.5,2.5,0,0,0-2.5-2.5Z" transform="translate(-6.041 -6.713)"/><path d="M23.476,46.308H10.161A4.166,4.166,0,0,1,6,42.147V32.161A4.166,4.166,0,0,1,10.161,28H23.476a4.166,4.166,0,0,1,4.161,4.161v9.986a4.038,4.038,0,0,1-.221,1.331,4.148,4.148,0,0,1-3.94,2.829ZM10.161,29.664a2.5,2.5,0,0,0-2.5,2.5v9.986a2.5,2.5,0,0,0,2.5,2.5H23.476a2.489,2.489,0,0,0,2.365-1.7,2.407,2.407,0,0,0,.131-.794V32.161a2.5,2.5,0,0,0-2.5-2.5Z" transform="translate(0 -3.692)"/><path d="M57.812,33.979H46.161A4.166,4.166,0,0,1,42,29.818V23.161A4.166,4.166,0,0,1,46.161,19H57.812a4.166,4.166,0,0,1,4.161,4.161v6.657A4.166,4.166,0,0,1,57.812,33.979ZM46.161,20.664a2.5,2.5,0,0,0-2.5,2.5v6.657a2.5,2.5,0,0,0,2.5,2.5H57.812a2.5,2.5,0,0,0,2.5-2.5V23.161a2.5,2.5,0,0,0-2.5-2.5Z" transform="translate(-6.041 -2.182)"/><path d="M51.832,59.322A.832.832,0,0,1,51,58.489V51.832a.832.832,0,0,1,1.248-.722l5.825,3.329a.832.832,0,0,1,0,1.445l-5.825,3.329A.832.832,0,0,1,51.832,59.322Zm.832-6.056v3.79l3.315-1.895Z" transform="translate(-7.552 -7.551)"/><path d="M21.2,47.64H10.161A4.166,4.166,0,0,1,6,43.479v-2.5a.832.832,0,0,1,.244-.588l3.728-3.728a2.45,2.45,0,0,1,1.853-.729,2.507,2.507,0,0,1,1.8.853l4.078,4.7a.832.832,0,1,1-1.257,1.09l-4.078-4.7a.825.825,0,0,0-.6-.282.79.79,0,0,0-.619.242L7.664,41.327v2.152a2.5,2.5,0,0,0,2.5,2.5H21.2a.832.832,0,0,1,0,1.664Z" transform="translate(0 -5.023)"/><path d="M24.483,48.122H12.832a.832.832,0,0,1-.56-1.448l7.939-7.215a2.507,2.507,0,0,1,3.505.138l4.529,4.853a.832.832,0,0,1,.181.832A4.15,4.15,0,0,1,24.483,48.122Zm-9.5-1.664h9.5a2.487,2.487,0,0,0,2.173-1.271L22.5,40.734a.832.832,0,0,0-1.165-.045Z" transform="translate(-1.007 -5.506)"/><path d="M19.5,35.993a2.5,2.5,0,1,1,2.5-2.5A2.5,2.5,0,0,1,19.5,35.993Zm0-3.329a.832.832,0,1,0,.832.832A.832.832,0,0,0,19.5,32.664Z" transform="translate(-1.846 -4.195)"/><path d="M53.832,31.49A.832.832,0,0,1,53,30.657V24.832a.832.832,0,1,1,1.664,0v5.825A.832.832,0,0,1,53.832,31.49Z" transform="translate(-7.887 -3.021)"/><path d="M57.155,27.329a.832.832,0,0,1-.749-.46l-.6-1.2H50.179l-.6,1.2a.833.833,0,0,1-1.49-.744l.832-1.664a.832.832,0,0,1,.741-.46h6.657a.832.832,0,0,1,.749.46l.832,1.664a.832.832,0,0,1-.749,1.2Z" transform="translate(-7.049 -3.021)"/><path d="M59.832,45.818A.832.832,0,0,1,59,44.986V35.832a.832.832,0,0,1,1.664,0v9.154A.832.832,0,0,1,59.832,45.818Z" transform="translate(-8.894 -4.867)"/><path d="M11.832,25.972A.832.832,0,0,1,11,25.14V10.161A4.166,4.166,0,0,1,15.161,6H48.448a4.166,4.166,0,0,1,4.161,4.161v7.49a.832.832,0,1,1-1.664,0v-7.49a2.5,2.5,0,0,0-2.5-2.5H15.161a2.5,2.5,0,0,0-2.5,2.5V25.14A.832.832,0,0,1,11.832,25.972Z" transform="translate(-0.839)"/><path d="M48.448,62.979H15.161A4.166,4.166,0,0,1,11,58.818V48.832a.832.832,0,0,1,1.664,0v9.986a2.5,2.5,0,0,0,2.5,2.5H48.448a.832.832,0,0,1,0,1.664Z" transform="translate(-0.839 -7.048)"/><path d="M26.063,17.651H11.832A.832.832,0,0,1,11,16.818V10.161A4.166,4.166,0,0,1,15.161,6H48.448a4.166,4.166,0,0,1,4.161,4.161v2.5a.832.832,0,0,1-.832.832H35.882a5.839,5.839,0,0,0-3.729,1.35l-1.291,1.075A7.5,7.5,0,0,1,26.063,17.651Zm-13.4-1.664h13.4a5.839,5.839,0,0,0,3.729-1.35l1.291-1.075a7.5,7.5,0,0,1,4.8-1.736H50.945V10.161a2.5,2.5,0,0,0-2.5-2.5H15.161a2.5,2.5,0,0,0-2.5,2.5Z" transform="translate(-0.839)"/><circle cx="2" cy="2" r="2" transform="translate(13.966 9.966)"/><circle cx="2" cy="2" r="2" transform="translate(18.966 9.966)"/><circle cx="2" cy="2" r="2" transform="translate(23.966 9.966)"/></g></g></svg>