<svg xmlns="http://www.w3.org/2000/svg" width="58" height="58" viewBox="0 0 58 58"><g transform="translate(-143 -47)"><circle cx="29" cy="29" r="29" transform="translate(143 47)" fill="#59a7d4" opacity="0.5"/><g transform="translate(148 52)"><circle cx="1.224" cy="1.224" r="1.224" transform="translate(3.99 2.766)"/><circle cx="1.224" cy="1.224" r="1.224" transform="translate(7.66 2.766)"/><circle cx="1.224" cy="1.224" r="1.224" transform="translate(11.331 2.766)"/><path d="M46.149,34.366H44.6a.6.6,0,0,1-.049-.118l1.1-1.1a.982.982,0,0,0,.285-.7,1.031,1.031,0,0,0-.285-.7L43.2,29.319V3.928A3.928,3.928,0,0,0,39.276,0H3.928A3.928,3.928,0,0,0,0,3.928V38.294a.982.982,0,0,0,.982.982H27.493a.982.982,0,0,0,.982.982h1.551a.6.6,0,0,1,.049.118l-1.1,1.1a.982.982,0,0,0-.285.7,1.031,1.031,0,0,0,.285.7l2.779,2.779a.982.982,0,0,0,1.394,0l1.1-1.1.118.049v1.551a.982.982,0,0,0,.982.982h3.928a.982.982,0,0,0,.982-.982V44.6l.118-.049,1.1,1.1a.982.982,0,0,0,.7.285,1.031,1.031,0,0,0,.7-.285l2.779-2.779a1.031,1.031,0,0,0,.285-.7.982.982,0,0,0-.285-.7l-1.1-1.1a.6.6,0,0,1,.049-.118h1.551a.982.982,0,0,0,.982-.982V35.348A.982.982,0,0,0,46.149,34.366ZM1.964,3.928A1.964,1.964,0,0,1,3.928,1.964H39.276A1.964,1.964,0,0,1,41.24,3.928V5.891H1.964Zm0,33.385V7.855H41.24V29.221l-.864.854-.118-.049V28.475a.982.982,0,0,0-.982-.982H35.348a.982.982,0,0,0-.982.982v1.551l-.118.049-1.1-1.1a.982.982,0,0,0-.7-.285,1.031,1.031,0,0,0-.7.285l-2.779,2.779a1.031,1.031,0,0,0-.285.7.982.982,0,0,0,.285.7l1.1,1.1a.6.6,0,0,1-.049.118H28.475a.982.982,0,0,0-.982.982v1.964Zm43.2.982H43.9a.982.982,0,0,0-.982.7,5.7,5.7,0,0,1-.461,1.119.982.982,0,0,0,.206,1.129l.894.894-1.335,1.424-.982-.894a.982.982,0,0,0-1.168-.167,5.7,5.7,0,0,1-1.119.461.982.982,0,0,0-.7.982v1.227H36.33V43.9a.982.982,0,0,0-.7-.982,5.7,5.7,0,0,1-1.119-.461.982.982,0,0,0-1.168.167l-.894.894-1.384-1.3.894-.894a.982.982,0,0,0,.167-1.168,5.7,5.7,0,0,1-.461-1.119.982.982,0,0,0-.982-.7H29.457V36.33h1.267a.982.982,0,0,0,.982-.7,5.7,5.7,0,0,1,.461-1.119.982.982,0,0,0-.206-1.129l-.894-.894,1.384-1.384.894.894a.982.982,0,0,0,1.168.167,5.7,5.7,0,0,1,1.119-.461.982.982,0,0,0,.7-.982V29.457h1.964v1.267a.982.982,0,0,0,.7.982,5.7,5.7,0,0,1,1.119.461.982.982,0,0,0,1.129-.206l.894-.894,1.384,1.384-.894.894a.982.982,0,0,0-.167,1.168,5.7,5.7,0,0,1,.461,1.119.982.982,0,0,0,.982.7h1.267Z"/><path d="M37.529,33.692a3.928,3.928,0,1,0,3.928,3.928A3.928,3.928,0,0,0,37.529,33.692Zm0,5.891a1.964,1.964,0,1,1,1.964-1.964A1.964,1.964,0,0,1,37.529,39.583ZM17.607,18.266a.982.982,0,0,0-1.394,0l-3.928,3.928a.982.982,0,0,0,0,1.394l3.928,3.928a.986.986,0,1,0,1.394-1.394l-3.24-3.23,3.24-3.23a.982.982,0,0,0,0-1.394Zm13.747,3.928-3.928-3.928a.986.986,0,0,0-1.394,1.394l3.24,3.23-3.24,3.23a.986.986,0,1,0,1.394,1.394l3.928-3.928a.982.982,0,0,0,0-1.394ZM23,17a.982.982,0,0,0-1.178.786L19.855,27.6a.982.982,0,0,0,.786,1.178h.2A.982.982,0,0,0,21.819,28l1.964-9.819A.982.982,0,0,0,23,17Z" transform="translate(-0.217 -0.307)"/></g></g></svg>